<?xml version="1.0" encoding="UTF-8"?>
<svg version="1.1" xmlns="http://www.w3.org/2000/svg" width="150" height="150">
<path d="M0 0 C49.5 0 99 0 150 0 C150 49.5 150 99 150 150 C100.5 150 51 150 0 150 C0 100.5 0 51 0 0 Z " fill="#000102" transform="translate(0,0)"/>
<path d="M0 0 C1.64657593 0.00749268 1.64657593 0.00749268 3.32641602 0.01513672 C19.35155621 0.35747857 32.87614206 6.25193948 44.703125 17.15625 C53.17399431 26.56832701 56.52966291 36.85053308 56.1875 49.3203125 C55.53294321 59.51737217 50.68629798 68.1651546 43.8125 75.5 C42.86117187 76.53060547 42.86117187 76.53060547 41.890625 77.58203125 C29.50535304 89.75777794 13.81062025 92.82357779 -2.93359375 92.73046875 C-4.35465961 92.72927486 -5.77572627 92.72882423 -7.1967926 92.7290802 C-10.15785747 92.72752434 -13.11879989 92.71929825 -16.07983398 92.70581055 C-19.88198045 92.68871282 -23.68399416 92.68499978 -27.48617458 92.68575573 C-30.41229019 92.6854846 -33.33837658 92.68001447 -36.2644825 92.67275429 C-37.66757041 92.66956693 -39.07066164 92.66760006 -40.47375298 92.66686058 C-42.42448999 92.66470391 -44.37521472 92.65517681 -46.32592773 92.64526367 C-47.43653061 92.64145187 -48.54713348 92.63764008 -49.69139099 92.63371277 C-52.1875 92.5 -52.1875 92.5 -53.1875 91.5 C-53.5625 88.7734375 -53.5625 88.7734375 -53.1875 85.5 C-51 82.7265625 -51 82.7265625 -48.1875 80.125 C-47.259375 79.25101562 -46.33125 78.37703125 -45.375 77.4765625 C-44.653125 76.82429688 -43.93125 76.17203125 -43.1875 75.5 C-43.74179687 74.57058594 -44.29609375 73.64117187 -44.8671875 72.68359375 C-45.59936631 71.43513501 -46.33111421 70.18642348 -47.0625 68.9375 C-47.42730469 68.32841797 -47.79210937 67.71933594 -48.16796875 67.09179688 C-54.07176205 56.94800658 -55.02162648 44.80567503 -52.5 33.38671875 C-50.39395435 27.74427144 -47.09917111 23.03982268 -43.1875 18.5 C-42.70925781 17.91605469 -42.23101562 17.33210938 -41.73828125 16.73046875 C-31.01407141 4.76365525 -15.59348648 -0.09338134 0 0 Z " fill="#2195F1" transform="translate(61.1875,7.5)"/>
<path d="M0 0 C7.07402894 3.05648466 11.72727559 9.73077515 15 16.5 C18.96079879 27.02632628 18.28377819 38.97665759 14.2890625 49.39453125 C12.33931026 53.33539411 9.9031941 56.70971336 7 60 C8.83647479 64.33987991 11.86443312 66.80927021 15.3203125 69.90234375 C17 72 17 72 17.3671875 74.62890625 C17 77 17 77 15 79 C12.47543335 79.27415466 12.47543335 79.27415466 9.24365234 79.30639648 C8.0341391 79.32238388 6.82462585 79.33837128 5.57846069 79.35484314 C4.26092804 79.36020584 2.94339539 79.36556854 1.5859375 79.37109375 C0.21464952 79.38006925 -1.15663751 79.38919125 -2.52792358 79.39845276 C-5.41479867 79.41497767 -8.30155755 79.42264652 -11.18847656 79.42553711 C-14.1214675 79.42980967 -17.05356526 79.45039998 -19.98632812 79.48706055 C-42.04011074 79.75802038 -62.11127628 79.70966003 -79 63.3125 C-85 56.89523381 -85 56.89523381 -85 54 C-84.23558594 53.98541748 -83.47117188 53.97083496 -82.68359375 53.95581055 C-56.61024969 53.40084993 -33.83618565 51.98508135 -14.1171875 33.20703125 C-5.36764167 24.02190197 -1.30538205 12.40112945 0 0 Z " fill="#62B1F1" transform="translate(125,55)"/>
<path d="M0 0 C1.07128647 -0.00630432 2.14257294 -0.01260864 3.24632263 -0.019104 C4.40777298 -0.01505554 5.56922333 -0.01100708 6.76586914 -0.00683594 C7.95451065 -0.00874939 9.14315216 -0.01066284 10.36781311 -0.01263428 C12.88551037 -0.01399734 15.40321462 -0.01029248 17.92089844 -0.00195312 C21.78149172 0.00873498 25.64161863 -0.00183978 29.50219727 -0.01464844 C31.94425559 -0.01332668 34.38631362 -0.01076395 36.82836914 -0.00683594 C37.98779526 -0.0108844 39.14722137 -0.01493286 40.34178162 -0.019104 C41.95343956 -0.00964752 41.95343956 -0.00964752 43.59765625 0 C45.01757118 0.00238678 45.01757118 0.00238678 46.46617126 0.00482178 C48.86352539 0.25878906 48.86352539 0.25878906 51.86352539 2.25878906 C51.11352539 7.00878906 51.11352539 7.00878906 48.86352539 9.25878906 C46.58642578 9.51275635 46.58642578 9.51275635 43.71118164 9.51757812 C42.63666748 9.52388245 41.56215332 9.53018677 40.45507812 9.53668213 C39.29049072 9.53263367 38.12590332 9.52858521 36.92602539 9.52441406 C35.73501221 9.52632751 34.54399902 9.52824097 33.31689453 9.5302124 C30.79500111 9.53157536 28.2731007 9.52787122 25.7512207 9.51953125 C21.8796419 9.50883359 18.00852717 9.51942312 14.13696289 9.53222656 C11.69164936 9.53090499 9.24633612 9.52834264 6.80102539 9.52441406 C5.05414429 9.53048676 5.05414429 9.53048676 3.27197266 9.53668213 C1.66020142 9.52722565 1.66020142 9.52722565 0.01586914 9.51757812 C-1.40737671 9.51519135 -1.40737671 9.51519135 -2.859375 9.51275635 C-5.13647461 9.25878906 -5.13647461 9.25878906 -7.13647461 7.25878906 C-7.38647461 4.75878906 -7.38647461 4.75878906 -7.13647461 2.25878906 C-4.56367385 -0.3140117 -3.57458913 0.00601369 0 0 Z " fill="#EAF2F9" transform="translate(40.136474609375,40.7412109375)"/>
<path d="M0 0 C1.2219104 0.00607269 1.2219104 0.00607269 2.46850586 0.01226807 C3.30438232 0.01035461 4.14025879 0.00844116 5.00146484 0.00646973 C6.77010397 0.00510771 8.53875309 0.0088053 10.30737305 0.01715088 C13.02016579 0.02785031 15.7322963 0.01725631 18.44506836 0.00445557 C20.16121566 0.00577716 21.87736255 0.00833955 23.59350586 0.01226807 C24.40811279 0.0082196 25.22271973 0.00417114 26.06201172 0 C31.80108658 0.04797379 31.80108658 0.04797379 34.03100586 2.27789307 C33.4754503 6.83344862 33.4754503 6.83344862 32.03100586 8.27789307 C29.1583653 8.37896181 26.31026958 8.41758978 23.43725586 8.41070557 C22.57539673 8.41166229 21.7135376 8.41261902 20.82556152 8.41360474 C18.99967374 8.41428656 17.17378355 8.41243211 15.34790039 8.40826416 C12.54299508 8.40291593 9.73824991 8.40820906 6.93334961 8.41461182 C5.163818 8.41395104 3.3942865 8.41266987 1.62475586 8.41070557 C0.77997681 8.4127298 -0.06480225 8.41475403 -0.93518066 8.4168396 C-6.85404383 8.39284338 -6.85404383 8.39284338 -7.96899414 7.27789307 C-8.15649414 4.84039307 -8.15649414 4.84039307 -7.96899414 2.27789307 C-5.36593522 -0.32516585 -3.54620875 0.02964329 0 0 Z " fill="#F3F7F9" transform="translate(40.968994140625,57.72210693359375)"/>
</svg>
