<?xml version="1.0" encoding="UTF-8"?>
<svg version="1.1" xmlns="http://www.w3.org/2000/svg" width="1024" height="1280">
<path d="M0 0 C2.16538411 0.58674627 4.33587184 1.11587813 6.52050781 1.62548828 C14.07253638 3.46350745 21.02082006 6.00885103 28.10644531 9.19580078 C30.75234533 10.37932224 33.39035142 11.42931081 36.10644531 12.43408203 C46.55802478 16.58016314 56.81646177 22.14711451 65.85253906 28.82861328 C67.64412096 30.14435103 69.47630796 31.40525869 71.32910156 32.63330078 C78.6561681 37.49763459 85.07002061 42.83954292 91.41894531 48.92236328 C94.21455207 51.62788332 94.21455207 51.62788332 97.13378906 53.84423828 C99.58433478 55.86051007 99.60606437 56.67352085 100.29394531 59.62158203 C100.90657227 59.92273926 101.51919922 60.22389648 102.15039062 60.53417969 C104.50896988 61.73066169 105.47083912 62.78595469 107.02832031 64.89501953 C107.5159082 65.54849365 108.00349609 66.20196777 108.50585938 66.87524414 C109.01342773 67.57528564 109.52099609 68.27532715 110.04394531 68.99658203 C110.5747168 69.72047119 111.10548828 70.44436035 111.65234375 71.19018555 C113.20999686 73.32664517 114.75310624 75.47297902 116.29394531 77.62158203 C117.04675781 78.65412109 117.79957031 79.68666016 118.57519531 80.75048828 C140.49432951 112.02004679 146.60862749 151.38584029 140.97705078 188.69775391 C137.03078871 210.54238595 127.83639572 232.18547304 113.95361328 249.54589844 C112.27477757 251.6455544 110.65622833 253.78308007 109.04394531 255.93408203 C95.4629494 273.32622601 79.0133178 287.75840752 60.03613281 298.99267578 C58.21875545 300.072229 56.4111866 301.16848065 54.61425781 302.28173828 C20.13194329 323.24813174 -20.36474268 330.93631624 -60.25146484 330.91210938 C-62.25244391 330.91810944 -64.25342069 330.92491832 -66.25439453 330.9324646 C-71.63386422 330.94996314 -77.01327012 330.95481255 -82.39276552 330.95609617 C-85.75902614 330.95752544 -89.12527091 330.96180918 -92.49152756 330.96709061 C-104.24843108 330.9855242 -116.00528953 330.99376799 -127.76220703 330.9921875 C-138.70574158 330.9909819 -149.64908026 331.01218309 -160.59256518 331.04367483 C-170.01375554 331.06981641 -179.43488171 331.08055597 -188.85610807 331.07927668 C-194.47267103 331.07876724 -200.08905882 331.08444368 -205.70558548 331.10563278 C-210.97696535 331.124984 -216.24800201 331.12516097 -221.51939392 331.11059952 C-223.45154191 331.10850777 -225.38371128 331.11323403 -227.3158226 331.12532043 C-229.95563179 331.14076446 -232.59425552 331.1314714 -235.23403931 331.11605835 C-235.99580683 331.12634548 -236.75757436 331.1366326 -237.54242575 331.14723146 C-243.0072382 331.07684147 -246.19787574 329.74051179 -250.70605469 326.62158203 C-254.62370706 321.69940341 -255.40437054 317.59821148 -255.15527344 311.33642578 C-253.96053441 304.11604642 -249.25339355 299.89765574 -243.70605469 295.62158203 C-242.02317217 293.97129055 -240.35989692 292.3009752 -238.70605469 290.62158203 C-237.5090693 289.42273481 -236.31108314 288.2248863 -235.11230469 287.02783203 C-234.47421875 286.38974609 -233.83613281 285.75166016 -233.17871094 285.09423828 C-230.23925781 282.15478516 -230.23925781 282.15478516 -227.29980469 279.21533203 C-226.68532471 278.60069092 -226.07084473 277.9860498 -225.43774414 277.3527832 C-224.35360662 276.26895138 -223.26889961 275.18568858 -222.18334961 274.10327148 C-220.43587686 272.36025413 -218.70057826 270.61569995 -217.01855469 268.80908203 C-215.70605469 267.62158203 -215.70605469 267.62158203 -213.70605469 267.62158203 C-215.76431566 263.99542946 -218.05575227 260.90741533 -220.76855469 257.74658203 C-247.61996525 225.18488773 -257.58692824 186.36158703 -254.47900391 144.56835938 C-252.86384964 127.81006559 -248.53191502 107.32150457 -238.18261719 93.60205078 C-236.54315033 91.40308333 -235.68226334 89.12501942 -234.64794922 86.6015625 C-232.77900252 82.67280208 -230.16804029 79.21231521 -227.64355469 75.68408203 C-226.83047852 74.51522461 -226.83047852 74.51522461 -226.00097656 73.32275391 C-225.21883789 72.21963867 -225.21883789 72.21963867 -224.42089844 71.09423828 C-223.94773193 70.42658447 -223.47456543 69.75893066 -222.98706055 69.07104492 C-222.56432861 68.59272217 -222.14159668 68.11439941 -221.70605469 67.62158203 C-221.04605469 67.62158203 -220.38605469 67.62158203 -219.70605469 67.62158203 C-219.46113281 66.89712891 -219.21621094 66.17267578 -218.96386719 65.42626953 C-215.35493189 57.3790163 -207.38361171 51.17636398 -200.70605469 45.62158203 C-199.82304687 44.85072266 -198.94003906 44.07986328 -198.03027344 43.28564453 C-191.69345088 37.83010193 -185.17373332 33.113067 -178.06933594 28.70751953 C-176.00721344 27.42857248 -173.95902366 26.12637105 -171.93652344 24.78564453 C-153.17960763 12.35602416 -132.3576482 5.20360184 -110.70605469 -0.37841797 C-109.92343262 -0.58241211 -109.14081055 -0.78640625 -108.33447266 -0.99658203 C-74.49643537 -9.53009175 -33.64104767 -9.17667278 0 0 Z " fill="#2196F3" transform="translate(515.7060546875,332.37841796875)"/>
<path d="M0 0 C5.765625 0.8203125 5.765625 0.8203125 7.875 2.4375 C9 4 9 4 9 6 C9.8353125 6.3403125 9.8353125 6.3403125 10.6875 6.6875 C13.67204749 8.38143236 15.62654045 10.51614698 18 13 C18.78890625 13.75796875 18.78890625 13.75796875 19.59375 14.53125 C46.92227883 40.86601415 62.42376664 80.50869873 63.35375977 118.19824219 C63.56918653 146.61476523 55.92114141 176.2439811 40 200 C39.46890625 200.80308594 38.9378125 201.60617187 38.390625 202.43359375 C34.53676828 208.09947026 30.31153886 213.3966962 25.91796875 218.65234375 C23.9000727 221.04497059 23.9000727 221.04497059 22 224 C25.39762256 228.15654169 28.72719917 231.71323013 33 235 C35.86166082 237.71490898 38.47446212 240.53960555 41 243.5625 C43.43195146 246.44227883 46.00554608 248.69657391 49 251 C62.96967831 264.21456057 62.96967831 264.21456057 63.4375 272.125 C63.40006406 277.84334049 60.66768795 281.77903552 57 286 C53.1101234 288.59325106 49.86449948 288.28404729 45.35256958 288.26742554 C44.45827456 288.27195665 43.56397955 288.27648776 42.64258468 288.28115618 C39.63292773 288.29385926 36.6234504 288.29217592 33.61376953 288.29052734 C31.46023322 288.29650958 29.30669905 288.30331442 27.15316772 288.31088257 C21.28847462 288.32859742 15.42383984 288.33324072 9.55912256 288.33451414 C5.88896611 288.33593512 2.21882449 288.34020408 -1.45132828 288.34550858 C-14.27469066 288.36403872 -27.0980114 288.37217692 -39.92138672 288.37060547 C-51.83796073 288.36940865 -63.75435227 288.39041267 -75.6708802 288.4220928 C-85.92087424 288.44836201 -96.17080918 288.45896807 -106.42083657 288.45769465 C-112.53324604 288.45718741 -118.64549402 288.46273561 -124.75786972 288.48405075 C-130.52484608 288.50360851 -136.29151013 288.5034392 -142.05849838 288.48901749 C-144.15890974 288.48694867 -146.25934152 288.491513 -148.35971832 288.5037384 C-166.60207056 288.6029114 -183.77126219 285.98309402 -201.25 280.6875 C-202.2495874 280.38900146 -203.2491748 280.09050293 -204.27905273 279.78295898 C-235.24863226 270.31058298 -262.8561884 253.26178414 -285.66796875 230.31640625 C-288.03419815 227.88142679 -288.03419815 227.88142679 -291.0625 225.5625 C-294.08527828 222.92560831 -295.83555681 220.3513959 -298 217 C-298.76699219 216.23816406 -299.53398437 215.47632813 -300.32421875 214.69140625 C-303.07569554 211.92386244 -305.40263033 209.05288491 -307.75 205.9375 C-308.52859375 204.91527344 -309.3071875 203.89304687 -310.109375 202.83984375 C-311.7265704 200.41070933 -312.70822933 198.8712886 -313 196 C-310.84146268 193.84146268 -305.78165812 194.84566351 -302.78393555 194.84228516 C-301.81439438 194.83720444 -300.84485321 194.83212372 -299.84593201 194.82688904 C-297.72720444 194.81614907 -295.60846526 194.80754327 -293.4897213 194.80076981 C-290.10879571 194.788965 -286.72799697 194.76949479 -283.34712219 194.74765015 C-273.72844863 194.68618141 -264.10977982 194.63254283 -254.4909668 194.59863281 C-208.68216197 194.94858871 -208.68216197 194.94858871 -163.703125 187.25805664 C-161.57608717 186.67407081 -159.44191823 186.12546204 -157.3046875 185.58007812 C-148.10816081 183.17534925 -139.65960382 179.90808625 -131 176 C-129.21289145 175.28024408 -127.42206603 174.56952087 -125.625 173.875 C-106.29351213 166.20527148 -86.90772788 154.51329672 -71.3125 140.8125 C-70.63574219 140.21953125 -69.95898438 139.6265625 -69.26171875 139.015625 C-67.60593766 137.54000662 -65.96467807 136.04804953 -64.33203125 134.546875 C-63.43871094 133.72703125 -62.54539062 132.9071875 -61.625 132.0625 C-60.37589844 130.90427734 -60.37589844 130.90427734 -59.1015625 129.72265625 C-57 128 -57 128 -55 128 C-54.74734375 127.42894531 -54.4946875 126.85789062 -54.234375 126.26953125 C-52.8440743 123.71331383 -51.21508072 121.83157063 -49.25 119.6875 C-48.53457031 118.89601563 -47.81914063 118.10453125 -47.08203125 117.2890625 C-46.39496094 116.53367187 -45.70789063 115.77828125 -45 115 C-40.90895035 110.46319434 -37.28363176 105.74419207 -33.83984375 100.6953125 C-32.62923679 98.92181186 -31.39266835 97.16571143 -30.12890625 95.4296875 C-23.42121534 85.95524279 -18.69458297 75.5803596 -14 65 C-13.53932129 63.9797876 -13.53932129 63.9797876 -13.06933594 62.93896484 C-4.39501966 43.38334862 -1.33006559 21.18932071 0 0 Z " fill="#64B5F6" transform="translate(687,496)"/>
<path d="M0 0 C1.92578125 1.7734375 1.92578125 1.7734375 3 4 C2.33984375 6.8046875 2.33984375 6.8046875 0.9375 9.875 C0.21820312 11.45667969 0.21820312 11.45667969 -0.515625 13.0703125 C-2.13936221 16.27505699 -3.84748504 19.12998005 -6 22 C-6.67546875 21.88140625 -7.3509375 21.7628125 -8.046875 21.640625 C-8.93890625 21.51171875 -9.8309375 21.3828125 -10.75 21.25 C-11.63171875 21.11078125 -12.5134375 20.9715625 -13.421875 20.828125 C-16.11105858 20.76352873 -16.11105858 20.76352873 -18.12304688 22.671875 C-20.38225325 25.47413723 -20.5302915 26.86311736 -20.609375 30.421875 C-20.64160156 31.44667969 -20.67382812 32.47148438 -20.70703125 33.52734375 C-20.72121094 34.59082031 -20.73539063 35.65429688 -20.75 36.75 C-20.77964844 37.82894531 -20.80929687 38.90789063 -20.83984375 40.01953125 C-20.91046936 42.67976244 -20.96320196 45.33912102 -21 48 C-19.78417236 47.95810547 -18.56834473 47.91621094 -17.31567383 47.87304688 C-12.7967862 47.72804524 -8.27810296 47.63633755 -3.75756836 47.56054688 C-1.80278937 47.5203591 0.15174977 47.46579588 2.10571289 47.39648438 C4.91873249 47.2992124 7.72857226 47.25403138 10.54296875 47.21875 C11.41398727 47.17745972 12.2850058 47.13616943 13.18241882 47.09362793 C15.69569082 47.091777 17.62293237 47.17520332 20 48 C22.27517221 50.4091011 23.64040733 52.99867162 25 56 C25.64388672 57.20849609 25.64388672 57.20849609 26.30078125 58.44140625 C26.63464844 59.14136719 26.96851563 59.84132813 27.3125 60.5625 C29.85821591 65.7926407 32.61086053 70.90008478 35.40942383 75.99829102 C38 80.78180267 38 80.78180267 38 83 C40.68821971 81.65589014 40.76894268 80.44551689 41.8046875 77.65625 C44.04009202 71.83881173 46.54834362 66.17323156 49.125 60.5 C49.56714844 59.51257813 50.00929688 58.52515625 50.46484375 57.5078125 C50.89152344 56.56679688 51.31820312 55.62578125 51.7578125 54.65625 C52.33233154 53.38491211 52.33233154 53.38491211 52.91845703 52.08789062 C54 50 54 50 56 48 C58.98095703 47.68115234 58.98095703 47.68115234 62.7578125 47.5859375 C63.42086395 47.56657135 64.08391541 47.5472052 64.76705933 47.5272522 C66.88624177 47.46744046 69.0054785 47.42106612 71.125 47.375 C72.56122169 47.33682155 73.99742045 47.29776989 75.43359375 47.2578125 C78.95551936 47.16173875 82.47761608 47.07771358 86 47 C87 50 87 50 85.99609375 52.27734375 C85.48175781 53.15519531 84.96742188 54.03304687 84.4375 54.9375 C82.26570206 58.74932842 80.18320785 62.5615737 78.25 66.5 C75.21652128 72.6304858 72.02185016 78.66958443 68.82006836 84.71313477 C66.07157361 89.91757751 63.41170806 95.15715859 60.8125 100.4375 C58.00971252 106.12114316 54.95378595 111.58188384 51.70703125 117.02734375 C49.23896988 121.32527213 47.08066691 125.76073728 44.89453125 130.20703125 C42.43328279 135.1809415 39.81218363 140.07006046 37.19580078 144.96362305 C36.83856934 145.63304932 36.48133789 146.30247559 36.11328125 146.9921875 C35.76217285 147.64799805 35.41106445 148.30380859 35.04931641 148.97949219 C33.62231589 151.72724841 32.31156524 154.52826154 31.01635742 157.34033203 C30 159 30 159 27 161 C24.21264648 161.24291992 24.21264648 161.24291992 20.87109375 161.23046875 C19.67162109 161.22853516 18.47214844 161.22660156 17.23632812 161.22460938 C15.3559082 161.20624023 15.3559082 161.20624023 13.4375 161.1875 C12.18001953 161.18685547 10.92253906 161.18621094 9.62695312 161.18554688 C0.28059648 161.14029824 0.28059648 161.14029824 -2 160 C-1.42976611 155.42084908 0.54857598 152.01295553 2.875 148.125 C8.47123568 138.50352288 13.20958431 128.47464244 17.85253906 118.36474609 C19 116 19 116 21.0390625 112.78125 C22.3722696 109.86197031 22.3722696 109.86197031 20.71875 106.4140625 C20.00398755 105.13683121 19.26295791 103.87403978 18.5 102.625 C18.12141846 101.9637915 17.74283691 101.30258301 17.3527832 100.62133789 C16.26116215 98.73048182 15.13933549 96.86240568 14 95 C13.48824219 94.16082031 12.97648438 93.32164062 12.44921875 92.45703125 C11.64440005 91.16882299 10.83140115 89.8856647 10.0078125 88.609375 C8.47880673 86.16770687 7.26748068 83.58566058 6 81 C3.11414653 75.59601954 0.18158008 70.23635055 -3 65 C-3.33644531 65.65484375 -3.67289063 66.3096875 -4.01953125 66.984375 C-6 69 -6 69 -9.57421875 69.390625 C-10.94585748 69.3641199 -12.31721938 69.3165309 -13.6875 69.25 C-14.38939453 69.23195313 -15.09128906 69.21390625 -15.81445312 69.1953125 C-17.54355436 69.14826213 -19.27195205 69.07651873 -21 69 C-20.99333817 69.64701874 -20.98667633 70.29403748 -20.97981262 70.96066284 C-20.9136014 77.67603603 -20.86825871 84.39131699 -20.83520508 91.10693359 C-20.8200897 93.61543542 -20.79959702 96.12391072 -20.77368164 98.63232422 C-20.73741958 102.23151182 -20.72030126 105.830351 -20.70703125 109.4296875 C-20.69154739 110.55680145 -20.67606354 111.68391541 -20.66011047 112.84518433 C-20.65988388 113.88611237 -20.65965729 114.92704041 -20.65942383 115.99951172 C-20.65276199 116.91884491 -20.64610016 117.8381781 -20.63923645 118.78536987 C-20.75828842 119.51619781 -20.87734039 120.24702576 -21 121 C-24.35119519 123.23413013 -25.4177755 123.23847762 -29.32421875 123.1953125 C-30.35224609 123.18886719 -31.38027344 123.18242188 -32.43945312 123.17578125 C-33.51130859 123.15902344 -34.58316406 123.14226562 -35.6875 123.125 C-36.77095703 123.11597656 -37.85441406 123.10695313 -38.97070312 123.09765625 C-41.6473571 123.0740734 -44.32356797 123.04116126 -47 123 C-48.81725255 119.88372945 -49.2455605 117.63873608 -49.22705078 114.04785156 C-49.22689972 113.06713684 -49.22674866 112.08642212 -49.22659302 111.07598877 C-49.21627045 110.02481873 -49.20594788 108.97364868 -49.1953125 107.890625 C-49.1924826 106.80867859 -49.18965271 105.72673218 -49.18673706 104.61199951 C-49.17554609 101.15788696 -49.1504432 97.70403412 -49.125 94.25 C-49.11496881 91.90755583 -49.1058432 89.56510759 -49.09765625 87.22265625 C-49.07561025 81.48167083 -49.04108755 75.74087944 -49 70 C-52.3 69.67 -55.6 69.34 -59 69 C-59 62.07 -59 55.14 -59 48 C-54.05 47.505 -54.05 47.505 -49 47 C-48.95101562 45.45570313 -48.90203125 43.91140625 -48.8515625 42.3203125 C-48.77646724 40.25519281 -48.70092241 38.19008944 -48.625 36.125 C-48.5940625 35.11179687 -48.563125 34.09859375 -48.53125 33.0546875 C-48.08344081 21.41164848 -46.64084306 12.19784504 -39 3 C-28.37037876 -6.12644248 -12.20320477 -7.11122005 0 0 Z " fill="#FEFEFE" transform="translate(703,814)"/>
<path d="M0 0 C0.77409568 -0.00155999 1.54819136 -0.00311998 2.34574449 -0.00472724 C4.9296838 -0.00870373 7.51356396 -0.00556063 10.09750366 -0.00241089 C11.95394424 -0.00376639 13.81038454 -0.00554717 15.66682434 -0.00772095 C20.70170772 -0.01227688 25.7365706 -0.01051344 30.77145433 -0.00734186 C36.03999925 -0.00480953 41.30854242 -0.00715817 46.5770874 -0.00872803 C55.42227494 -0.01054684 64.26745412 -0.00815061 73.11264038 -0.00338745 C83.34304333 0.00205798 93.57342636 0.00028931 103.80382884 -0.00521386 C112.58610696 -0.00974915 121.36837909 -0.01039359 130.15065801 -0.00777519 C135.39666214 -0.00621515 140.6426569 -0.00601127 145.88866043 -0.00931168 C150.81834155 -0.01219653 155.74799692 -0.01020333 160.67767525 -0.00441742 C162.48851415 -0.00309328 164.29935521 -0.0034781 166.11019325 -0.00568008 C168.57829302 -0.00840503 171.04630984 -0.00499394 173.5144043 0 C174.59387201 -0.00334608 174.59387201 -0.00334608 175.69514716 -0.00675976 C182.34696652 0.01941831 182.34696652 0.01941831 185.13021851 1.12698364 C192.6447651 9.35720134 192.6447651 9.35720134 192.43881226 15.93557739 C191.89745752 19.77988129 190.62996468 23.14483031 188.13021851 26.12698364 C183.06048263 29.53806459 179.31135218 30.71055282 173.16036987 30.62145996 C172.00111976 30.62870321 172.00111976 30.62870321 170.81845045 30.63609278 C168.24428851 30.64731062 165.67113179 30.63008562 163.09701538 30.61282349 C161.24529248 30.61497068 159.3935709 30.61885036 157.54185486 30.62432861 C152.52323108 30.63400696 147.50496408 30.61873727 142.48638344 30.59842253 C137.22993006 30.58082841 131.97348732 30.58437707 126.7170105 30.58514404 C117.89033047 30.5832721 109.06378812 30.56592274 100.2371521 30.53860474 C90.03800158 30.50715512 79.83900179 30.49660863 69.63980627 30.49807584 C58.77357669 30.49942781 47.90740508 30.48553934 37.04119301 30.46718264 C33.91359359 30.46292404 30.78600354 30.46150083 27.65840149 30.4607048 C22.74014224 30.45869253 17.82200904 30.44645517 12.90379143 30.42637253 C11.10066945 30.42054177 9.29753296 30.41806789 7.49440193 30.4192276 C5.02949064 30.42021284 2.56492951 30.40886064 0.10006714 30.39440918 C-0.96526961 30.39905499 -0.96526961 30.39905499 -2.05212831 30.40379465 C-8.08788021 30.34552376 -13.07089558 29.65212605 -17.74478149 25.68948364 C-21.26531007 21.44414036 -21.38891425 17.34064458 -21.34634399 11.99807739 C-20.6582142 7.85237742 -18.77620701 5.62509142 -15.98696899 2.58792114 C-11.37783247 -0.59255314 -5.41485659 -0.01688942 0 0 Z " fill="#F8F9F9" transform="translate(373.8697814941406,448.8730163574219)"/>
<path d="M0 0 C4.47915328 -0.02886338 8.95828291 -0.04675187 13.4375 -0.0625 C14.71689453 -0.07087891 15.99628906 -0.07925781 17.31445312 -0.08789062 C19.13686523 -0.09272461 19.13686523 -0.09272461 20.99609375 -0.09765625 C22.12200928 -0.10289307 23.2479248 -0.10812988 24.40795898 -0.11352539 C27 0 27 0 28 1 C28.12401914 3.17731389 28.1780151 5.35863454 28.20532227 7.53930664 C28.21522186 8.22220261 28.22512146 8.90509857 28.23532104 9.60868835 C28.26701935 11.87580853 28.29172613 14.14294969 28.31640625 16.41015625 C28.3369686 17.97815001 28.35796488 19.54613813 28.37937927 21.11412048 C28.43467424 25.24870248 28.48405062 29.38333511 28.53222656 33.51800537 C28.58238753 37.73405483 28.63810174 41.95003043 28.69335938 46.16601562 C28.8010317 54.44394803 28.90245635 62.72194208 29 71 C30.12771306 70.04510643 31.25378178 69.08827068 32.37915039 68.13061523 C33.00640518 67.59798569 33.63365997 67.06535614 34.27992249 66.5165863 C36.78974808 64.30368189 38.82896542 61.81085453 40.93359375 59.22265625 C41.61550781 58.48917969 42.29742188 57.75570312 43 57 C43.45842285 56.40678955 43.9168457 55.8135791 44.38916016 55.20239258 C47.62846491 51.61079184 49.98094352 50.1493249 54.83374023 49.43823242 C59.39529604 49.22508894 63.93982099 49.38822863 68.5 49.5625 C70.10149426 49.59766028 71.70306287 49.62959101 73.3046875 49.65820312 C77.20497872 49.73485979 81.1016617 49.85536987 85 50 C83.68808355 52.91128647 82.29885167 54.93317129 80.00317383 57.14453125 C79.39947464 57.73194092 78.79577545 58.31935059 78.17378235 58.92456055 C77.52475449 59.54758057 76.87572662 60.17060059 76.20703125 60.8125 C74.84137755 62.14800885 73.47615597 63.48395968 72.11132812 64.8203125 C69.95662607 66.91907067 67.79828277 69.01369668 65.63208008 71.10058594 C63.54183952 73.11855313 61.4673457 75.15165874 59.39453125 77.1875 C58.73943069 77.81052002 58.08433014 78.43354004 57.40937805 79.07543945 C56.81513535 79.66284912 56.22089264 80.25025879 55.60864258 80.85546875 C55.0795076 81.36746826 54.55037262 81.87946777 54.00520325 82.40698242 C52.79110769 83.97732897 52.79110769 83.97732897 53.16899109 86.05200195 C54.27538328 88.64553591 56.13532643 89.88317845 58.3203125 91.58203125 C60.69597825 93.58753513 62.57755873 95.9178179 64.5625 98.30078125 C67.25962096 101.48895412 70.12862423 104.32971094 73.4375 106.875 C76.15644642 109.12973606 78.26555097 111.55122688 80.51171875 114.26171875 C82.15367559 116.23135755 82.15367559 116.23135755 84.8125 118.75 C87 121 87 121 88 124 C82.21940373 125.7564424 76.04320013 125.22589642 70.0625 125.25 C68.14920898 125.2809375 68.14920898 125.2809375 66.19726562 125.3125 C64.35358398 125.32023438 64.35358398 125.32023438 62.47265625 125.328125 C61.35125244 125.3374707 60.22984863 125.34681641 59.07446289 125.35644531 C53.10382112 124.66422448 49.79249596 121.03568305 45.69921875 116.89453125 C45.2179805 116.4104631 44.73674225 115.92639496 44.24092102 115.42765808 C42.71831699 113.89393823 41.20285057 112.35338342 39.6875 110.8125 C38.65085592 109.765815 37.61375102 108.7195862 36.57617188 107.67382812 C34.04451977 105.12193899 31.52265519 102.56090944 29 100 C28.67 107.59 28.34 115.18 28 123 C24.11283381 124.94358309 22.7551905 125.24864596 18.61328125 125.23046875 C17.0828418 125.22756836 17.0828418 125.22756836 15.52148438 125.22460938 C14.46251953 125.21236328 13.40355469 125.20011719 12.3125 125.1875 C10.70665039 125.1865332 10.70665039 125.1865332 9.06835938 125.18554688 C1.14030114 125.14030114 1.14030114 125.14030114 0 124 C-0.09600136 122.393108 -0.12187889 120.78198231 -0.12025452 119.17222595 C-0.12162918 118.12749619 -0.12300385 117.08276642 -0.12442017 116.00637817 C-0.12082489 114.85048187 -0.11722961 113.69458557 -0.11352539 112.50366211 C-0.11367142 111.29407333 -0.11381744 110.08448456 -0.1139679 108.83824158 C-0.11338893 105.51193649 -0.10835973 102.18569281 -0.10139394 98.8593986 C-0.09515978 95.38670071 -0.09455655 91.91400207 -0.09336853 88.44129944 C-0.0902554 81.86103807 -0.08204225 75.28079324 -0.07201904 68.70053917 C-0.06085734 61.21093888 -0.05534731 53.72133782 -0.05032361 46.2317313 C-0.03985962 30.82114461 -0.02226053 15.41057443 0 0 Z " fill="#FEFEFE" transform="translate(515,812)"/>
<path d="M0 0 C0.33 -0.99 0.66 -1.98 1 -3 C9.91 -3 18.82 -3 28 -3 C28 21.42 28 45.84 28 71 C25.09125996 71.96958001 23.21010209 72.12880274 20.18359375 72.1328125 C19.25482422 72.13410156 18.32605469 72.13539063 17.36914062 72.13671875 C15.91797852 72.13091797 15.91797852 72.13091797 14.4375 72.125 C12.98053711 72.13080078 12.98053711 72.13080078 11.49414062 72.13671875 C10.10291992 72.13478516 10.10291992 72.13478516 8.68359375 72.1328125 C7.83337646 72.13168457 6.98315918 72.13055664 6.10717773 72.12939453 C4 72 4 72 2 71 C1.375 68.4375 1.375 68.4375 1 66 C0.05125 66.763125 -0.8975 67.52625 -1.875 68.3125 C-9.69303463 73.82742623 -18.6210305 75.04210772 -28 74 C-35.26242982 72.48223377 -41.20890684 70.95257029 -46 65 C-46.969375 64.319375 -47.93875 63.63875 -48.9375 62.9375 C-55.49406599 57.53299212 -58.67164136 48.03404679 -59.81640625 39.85546875 C-60.40602013 30.68509122 -59.32373093 23.10078324 -55 15 C-54.608125 14.01 -54.21625 13.02 -53.8125 12 C-48.34415717 2.9489498 -40.96722197 -1.88176296 -31 -5 C-19.93192344 -7.56175066 -10.08836514 -4.70790373 0 0 Z M-29 25 C-30.77958722 30.87263783 -30.56710433 36.96509623 -28.9375 42.8125 C-26.59189194 46.67140358 -24.25829237 48.66531135 -20 50 C-14.04564441 50.82908749 -9.05976827 50.49364952 -4 47 C-0.59535035 43.40620314 1.95028635 39.9772955 2.03515625 34.89453125 C1.67339806 29.62697905 0.63697055 26.00999317 -3 22 C-12.11551465 15.63895608 -21.23766479 17.23766479 -29 25 Z " fill="#FEFEFE" transform="translate(429,865)"/>
<path d="M0 0 C1.14239136 0.00303635 1.14239136 0.00303635 2.30786133 0.00613403 C3.10619385 0.00438171 3.90452637 0.00262939 4.72705078 0.00082397 C7.37900942 -0.00359511 10.03090195 -0.00065636 12.68286133 0.00271606 C14.51749688 0.00204304 16.35213234 0.00107303 18.18676758 -0.00018311 C22.03703661 -0.00166015 25.88728248 0.0004947 29.73754883 0.00515747 C34.6844263 0.01085476 39.63124952 0.0075758 44.578125 0.00158501 C48.36808688 -0.00202042 52.15803579 -0.00088211 55.94799805 0.0017128 C57.77254238 0.00238212 59.59708788 0.00155347 61.42163086 -0.00076675 C63.96707294 -0.00329298 66.51242592 0.00054687 69.05786133 0.00613403 C69.81945557 0.0041098 70.5810498 0.00208557 71.36572266 0 C76.56859875 0.02126599 76.56859875 0.02126599 77.68286133 1.13552856 C77.78245753 2.97711879 77.81366543 4.82249823 77.81567383 6.66677856 C77.81696289 7.78697388 77.81825195 8.90716919 77.81958008 10.06130981 C77.81571289 11.240802 77.8118457 12.42029419 77.80786133 13.63552856 C77.81172852 14.81502075 77.8155957 15.99451294 77.81958008 17.20974731 C77.81829102 18.32994263 77.81700195 19.45013794 77.81567383 20.60427856 C77.8145459 21.64004028 77.81341797 22.675802 77.81225586 23.74295044 C77.68286133 26.13552856 77.68286133 26.13552856 76.68286133 27.13552856 C74.00578681 27.23711398 71.35983813 27.27411728 68.68286133 27.26052856 C67.58651367 27.26632935 67.58651367 27.26632935 66.46801758 27.27224731 C65.73454102 27.27095825 65.00106445 27.26966919 64.24536133 27.26834106 C63.58665039 27.26721313 62.92793945 27.26608521 62.24926758 27.2649231 C58.38037689 27.06985916 54.53297309 26.56331876 50.68286133 26.13552856 C50.68286133 57.15552856 50.68286133 88.17552856 50.68286133 120.13552856 C47.46479483 121.2082174 45.11992218 121.26476616 41.73754883 121.26834106 C40.57868164 121.26963013 39.41981445 121.27091919 38.22583008 121.27224731 C36.41018555 121.26644653 36.41018555 121.26644653 34.55786133 121.26052856 C33.33969727 121.26439575 32.1215332 121.26826294 30.86645508 121.27224731 C29.71016602 121.27095825 28.55387695 121.26966919 27.36254883 121.26834106 C26.29762207 121.26721313 25.23269531 121.26608521 24.13549805 121.2649231 C21.68286133 121.13552856 21.68286133 121.13552856 20.68286133 120.13552856 C20.58762228 117.24409705 20.55733105 114.37660792 20.56933594 111.4848938 C20.56918991 110.57766571 20.56904388 109.67043762 20.56889343 108.73571777 C20.56959292 105.72182872 20.57738698 102.70800064 20.58520508 99.69412231 C20.58706913 97.61046889 20.58849309 95.52681503 20.5894928 93.44316101 C20.59331899 87.9472941 20.60315013 82.45145343 20.61419678 76.95559692 C20.62440873 71.35216629 20.62898995 65.74873144 20.6340332 60.14529419 C20.64477231 49.14202742 20.66184994 38.13878017 20.68286133 27.13552856 C19.50929077 27.14338379 19.50929077 27.14338379 18.31201172 27.15139771 C14.78980299 27.17209962 11.26760703 27.18516695 7.74536133 27.19802856 C6.51366211 27.20640747 5.28196289 27.21478638 4.01293945 27.22341919 C2.84311523 27.22664185 1.67329102 27.2298645 0.46801758 27.23318481 C-1.15801392 27.24104004 -1.15801392 27.24104004 -2.81689453 27.24905396 C-5.31713867 27.13552856 -5.31713867 27.13552856 -6.31713867 26.13552856 C-6.41673488 24.29393834 -6.44794278 22.44855889 -6.44995117 20.60427856 C-6.45124023 19.48408325 -6.4525293 18.36388794 -6.45385742 17.20974731 C-6.44999023 16.03025513 -6.44612305 14.85076294 -6.44213867 13.63552856 C-6.44600586 12.45603638 -6.44987305 11.27654419 -6.45385742 10.06130981 C-6.45256836 8.9411145 -6.4512793 7.82091919 -6.44995117 6.66677856 C-6.44882324 5.63101685 -6.44769531 4.59525513 -6.4465332 3.52810669 C-6.20529688 -0.93248938 -3.91200221 0.01598973 0 0 Z " fill="#FEFEFE" transform="translate(300.317138671875,815.8644714355469)"/>
<path d="M0 0 C1.6083799 -0.01506844 1.6083799 -0.01506844 3.24925232 -0.03044128 C4.41043579 -0.03627228 5.57161926 -0.04210327 6.76799011 -0.04811096 C8.62030495 -0.06278664 8.62030495 -0.06278664 10.51004028 -0.07775879 C14.58974778 -0.10763308 18.66942062 -0.12938788 22.74919128 -0.14796448 C23.7931288 -0.15291046 23.7931288 -0.15291046 24.85815597 -0.15795636 C31.42992584 -0.18872134 38.00170068 -0.21540591 44.57352161 -0.23237514 C52.95522525 -0.25427925 61.33628839 -0.29627758 69.71773607 -0.36581272 C75.62537604 -0.4131485 81.53284372 -0.43732098 87.44066733 -0.44457203 C90.96288986 -0.44951215 94.48438818 -0.46443499 98.00640297 -0.50431633 C101.93883839 -0.54826401 105.87045732 -0.54426452 109.80314636 -0.53639221 C110.95825714 -0.55639282 112.11336792 -0.57639343 113.30348206 -0.59700012 C119.98417611 -0.53707954 124.27617943 0.51200825 129.76125622 4.38435268 C132.35361002 7.06401234 133.34958851 9.83345886 133.71012878 13.51219177 C133.6959491 14.26242615 133.68176941 15.01266052 133.66716003 15.78562927 C133.65749207 16.91871521 133.65749207 16.91871521 133.64762878 18.07469177 C133.47966003 20.16062927 133.47966003 20.16062927 132.47966003 23.16062927 C130.84705289 24.53545634 129.17740941 25.86710594 127.47966003 27.16062927 C126.82345326 27.95301042 126.82345326 27.95301042 126.15398979 28.76139927 C123.78413778 30.74187416 122.1280484 30.54070698 119.06538391 30.54830933 C117.94098907 30.55821396 116.81659424 30.56811859 115.65812683 30.57832336 C114.42376892 30.57382172 113.18941101 30.56932007 111.91764832 30.56468201 C110.61826324 30.57154526 109.31887817 30.57840851 107.9801178 30.58547974 C104.41388647 30.60344748 100.8479007 30.6022358 97.28163767 30.59653735 C94.30451711 30.59344995 91.32744404 30.5995331 88.35033023 30.6055761 C81.32585455 30.61963226 74.30150044 30.61805169 67.27702332 30.60667419 C60.03160558 30.5951981 52.78655822 30.60925732 45.54118931 30.63607067 C39.32026885 30.65823036 33.09946462 30.66486428 26.87850749 30.65899426 C23.16320423 30.65562331 19.44813826 30.65804825 15.73286819 30.67524529 C11.58849411 30.69359032 7.44483979 30.67952468 3.30046082 30.66233826 C1.45499664 30.67684021 1.45499664 30.67684021 -0.42774963 30.69163513 C-1.55778412 30.68180099 -2.6878186 30.67196686 -3.85209656 30.66183472 C-4.83175322 30.66162543 -5.81140987 30.66141615 -6.8207531 30.66120052 C-11.40906063 29.81041299 -13.87608044 26.90936331 -16.83283997 23.47312927 C-19.41903165 18.39653078 -19.19728934 13.86842675 -17.83283997 8.41062927 C-16.07324526 5.3941812 -14.22683728 3.37503616 -11.52033997 1.16062927 C-7.66104662 0.29973752 -3.945252 0.02925263 0 0 Z " fill="#F7F8F9" transform="translate(371.5203399658203,509.83937072753906)"/>
<path d="M0 0 C4.47915328 -0.02886338 8.95828291 -0.04675187 13.4375 -0.0625 C14.71689453 -0.07087891 15.99628906 -0.07925781 17.31445312 -0.08789062 C19.13686523 -0.09272461 19.13686523 -0.09272461 20.99609375 -0.09765625 C22.12200928 -0.10289307 23.2479248 -0.10812988 24.40795898 -0.11352539 C27 0 27 0 28 1 C28.09597204 2.59422036 28.12187924 4.1927045 28.12025452 5.78981018 C28.12162918 6.82612579 28.12300385 7.86244141 28.12442017 8.93016052 C28.12082489 10.07670609 28.11722961 11.22325165 28.11352539 12.40454102 C28.11367142 13.60437622 28.11381744 14.80421143 28.1139679 16.04040527 C28.11338894 19.33985191 28.10835978 22.63923664 28.10139394 25.9386723 C28.09515973 29.38334297 28.09455655 32.82801438 28.09336853 36.27268982 C28.09025541 42.7998273 28.08204229 49.32694811 28.07201904 55.85407823 C28.0608573 63.28322016 28.0553473 70.71236286 28.05032361 78.14151108 C28.03985966 93.42768372 28.0222606 108.71383972 28 124 C24.77914668 124.86077037 21.9565545 125.12878481 18.61328125 125.1328125 C17.59298828 125.13410156 16.57269531 125.13539063 15.52148438 125.13671875 C14.46251953 125.13285156 13.40355469 125.12898437 12.3125 125.125 C11.24193359 125.12886719 10.17136719 125.13273438 9.06835938 125.13671875 C8.05193359 125.13542969 7.03550781 125.13414062 5.98828125 125.1328125 C4.58896362 125.13112061 4.58896362 125.13112061 3.16137695 125.12939453 C1 125 1 125 0 124 C-0.09600136 122.393108 -0.12187889 120.78198231 -0.12025452 119.17222595 C-0.12162918 118.12749619 -0.12300385 117.08276642 -0.12442017 116.00637817 C-0.12082489 114.85048187 -0.11722961 113.69458557 -0.11352539 112.50366211 C-0.11367142 111.29407333 -0.11381744 110.08448456 -0.1139679 108.83824158 C-0.11338893 105.51193649 -0.10835973 102.18569281 -0.10139394 98.8593986 C-0.09515978 95.38670071 -0.09455655 91.91400207 -0.09336853 88.44129944 C-0.0902554 81.86103807 -0.08204225 75.28079324 -0.07201904 68.70053917 C-0.06085734 61.21093888 -0.05534731 53.72133782 -0.05032361 46.2317313 C-0.03985962 30.82114461 -0.02226053 15.41057443 0 0 Z " fill="#FEFEFE" transform="translate(472,812)"/>
<path d="M0 0 C8.58 0 17.16 0 26 0 C26.7582068 4.5492408 27.12209605 8.28909594 27.11352539 12.83154297 C27.11367142 13.48590836 27.11381744 14.14027374 27.1139679 14.81446838 C27.11327647 16.95707626 27.10552052 19.09959499 27.09765625 21.2421875 C27.09578933 22.73576815 27.09436672 24.22934942 27.09336853 25.72293091 C27.08956494 29.63885207 27.07975324 33.55473568 27.06866455 37.47064209 C27.05840388 41.47261039 27.05386096 45.47458481 27.04882812 49.4765625 C27.0381289 57.3177255 27.0210786 65.15885807 27 73 C23.74948015 74.73106895 21.57235547 75.25621249 17.8671875 75.265625 C16.89652344 75.26820313 15.92585937 75.27078125 14.92578125 75.2734375 C13.41564453 75.26183594 13.41564453 75.26183594 11.875 75.25 C10.86050781 75.25773438 9.84601562 75.26546875 8.80078125 75.2734375 C7.83269531 75.27085937 6.86460937 75.26828125 5.8671875 75.265625 C4.98144043 75.26336914 4.09569336 75.26111328 3.18310547 75.25878906 C1 75 1 75 -1 73 C-1.24723816 70.70321655 -1.24723816 70.70321655 -1.24291992 67.79443359 C-1.24599655 66.70504486 -1.24907318 65.61565613 -1.25224304 64.49325562 C-1.24505753 63.30696564 -1.23787201 62.12067566 -1.23046875 60.8984375 C-1.23001053 59.67403961 -1.22955231 58.44964172 -1.2290802 57.18814087 C-1.22527499 53.91609916 -1.21227032 50.6442495 -1.19561768 47.37225342 C-1.18233797 44.10494704 -1.18534128 40.83764161 -1.18554688 37.5703125 C-1.16724217 25.00248394 -0.99259971 12.53057876 0 0 Z " fill="#FEFEFE" transform="translate(608,862)"/>
<path d="M0 0 C0.33 0 0.66 0 1 0 C4.01399938 33.5558598 -19.60227839 71.35104984 -40 96 C-40.52980469 96.64324219 -41.05960938 97.28648437 -41.60546875 97.94921875 C-50.40940591 108.31830029 -60.27281671 117.65480994 -71 126 C-72.15435547 126.92039062 -72.15435547 126.92039062 -73.33203125 127.859375 C-87.76345602 139.28319986 -102.96879814 148.35447682 -119.69238281 155.94482422 C-121.78296474 156.90075895 -123.85735978 157.88421021 -125.9296875 158.87890625 C-160.56615955 175.18927403 -200.1365198 179.19799486 -237.9296875 179.09765625 C-240.01718105 179.09578714 -242.10467504 179.09436557 -244.19216919 179.09336853 C-249.64016976 179.08958214 -255.08814294 179.07978576 -260.53613281 179.06866455 C-266.11392852 179.05836627 -271.69172874 179.05385302 -277.26953125 179.04882812 C-288.17969942 179.03815935 -299.08984742 179.02113052 -310 179 C-309.505 178.01 -309.505 178.01 -309 177 C-303.29834683 175.99624253 -297.68419653 175.84975398 -291.90722656 175.84228516 C-291.03419891 175.83720444 -290.16117126 175.83212372 -289.26168823 175.82688904 C-287.37499217 175.81623939 -285.48828389 175.80759831 -283.60157013 175.80076981 C-280.5855334 175.78884467 -277.56963134 175.76934966 -274.5536499 175.74765015 C-265.980476 175.68655503 -257.4073125 175.63251237 -248.83398438 175.59863281 C-205.36940389 175.74008437 -205.36940389 175.74008437 -162.703125 168.25805664 C-160.57608717 167.67407081 -158.44191823 167.12546204 -156.3046875 166.58007812 C-147.10816081 164.17534925 -138.65960382 160.90808625 -130 157 C-128.21289145 156.28024408 -126.42206603 155.56952087 -124.625 154.875 C-105.29351213 147.20527148 -85.90772788 135.51329672 -70.3125 121.8125 C-69.29736328 120.92304687 -69.29736328 120.92304687 -68.26171875 120.015625 C-66.60593766 118.54000662 -64.96467807 117.04804953 -63.33203125 115.546875 C-62.43871094 114.72703125 -61.54539062 113.9071875 -60.625 113.0625 C-59.79226563 112.29035156 -58.95953125 111.51820313 -58.1015625 110.72265625 C-56 109 -56 109 -54 109 C-53.74734375 108.42894531 -53.4946875 107.85789062 -53.234375 107.26953125 C-51.8440743 104.71331383 -50.21508072 102.83157063 -48.25 100.6875 C-47.53457031 99.89601563 -46.81914063 99.10453125 -46.08203125 98.2890625 C-45.39496094 97.53367187 -44.70789063 96.77828125 -44 96 C-39.90895035 91.46319434 -36.28363176 86.74419207 -32.83984375 81.6953125 C-31.62923679 79.92181186 -30.39266835 78.16571143 -29.12890625 76.4296875 C-22.42121534 66.95524279 -17.69458297 56.5803596 -13 46 C-12.53932129 44.9797876 -12.53932129 44.9797876 -12.06933594 43.93896484 C-6.50331537 31.39077561 -4.1969078 17.94827123 -1.5690918 4.54345703 C-1 2 -1 2 0 0 Z " fill="#69C3FE" transform="translate(686,515)"/>
<path d="M0 0 C4.20984202 3.64094445 7.62768377 7.09381112 8.9375 12.65234375 C9.39555785 19.45641137 7.43793416 23.23355144 3.0390625 28.3203125 C-0.83121167 32.08551135 -5.34145405 31.32659312 -10.4765625 31.28125 C-14.59249478 30.92073038 -16.7310088 29.8786888 -19.6875 27 C-23.11633752 22.86174782 -23.81916669 18.25788993 -23.6875 13 C-22.84205424 8.4116099 -21.22025489 5.13714204 -17.6875 2.0625 C-12.29619139 -1.64402467 -6.15494888 -2.29021354 0 0 Z " fill="#FEFEFE" transform="translate(628.6875,817)"/>
<path d="M0 0 C2.16538411 0.58674627 4.33587184 1.11587813 6.52050781 1.62548828 C14.07253638 3.46350745 21.02082006 6.00885103 28.10644531 9.19580078 C30.75234533 10.37932224 33.39035142 11.42931081 36.10644531 12.43408203 C46.55802478 16.58016314 56.81646177 22.14711451 65.85253906 28.82861328 C67.64412096 30.14435103 69.47630796 31.40525869 71.32910156 32.63330078 C78.6561681 37.49763459 85.07002061 42.83954292 91.41894531 48.92236328 C94.20775051 51.62681098 94.20775051 51.62681098 97.11816406 53.80517578 C99.29394531 55.62158203 99.29394531 55.62158203 100.10644531 58.37158203 C100.16832031 59.11408203 100.23019531 59.85658203 100.29394531 60.62158203 C96.42652964 57.38374565 92.70581174 54.06282196 89.06787109 50.56762695 C75.12041882 37.3048834 59.36170329 27.37907211 42.29394531 18.62158203 C41.65457031 18.28433105 41.01519531 17.94708008 40.35644531 17.59960938 C-0.00113283 -3.58590656 -50.34906998 -7.87170493 -94.70605469 -0.37841797 C-96.16422607 -0.13696045 -96.16422607 -0.13696045 -97.65185547 0.109375 C-119.6996112 3.88992412 -140.21436465 10.91819653 -160.08105469 21.12158203 C-160.67953217 21.42642517 -161.27800964 21.73126831 -161.8946228 22.04534912 C-170.54713272 26.48986655 -178.07016909 31.62995139 -185.70605469 37.62158203 C-186.90885994 38.51790611 -188.11500708 39.40979948 -189.32714844 40.29345703 C-190.2565625 40.97923828 -191.18597656 41.66501953 -192.14355469 42.37158203 C-193.09101563 43.06767578 -194.03847656 43.76376953 -195.01464844 44.48095703 C-197.80014551 46.69641769 -200.22604514 49.07116212 -202.70605469 51.62158203 C-203.54523438 52.42595703 -204.38441406 53.23033203 -205.24902344 54.05908203 C-213.00120095 61.57079318 -219.71153113 69.62979669 -225.70605469 78.62158203 C-226.36605469 78.62158203 -227.02605469 78.62158203 -227.70605469 78.62158203 C-227.0970241 75.52852781 -226.10736666 73.42518441 -224.26855469 70.87158203 C-223.83671875 70.25798828 -223.40488281 69.64439453 -222.95996094 69.01220703 C-222.33927734 68.32384766 -222.33927734 68.32384766 -221.70605469 67.62158203 C-221.04605469 67.62158203 -220.38605469 67.62158203 -219.70605469 67.62158203 C-219.46113281 66.89712891 -219.21621094 66.17267578 -218.96386719 65.42626953 C-215.35493189 57.3790163 -207.38361171 51.17636398 -200.70605469 45.62158203 C-199.82304687 44.85072266 -198.94003906 44.07986328 -198.03027344 43.28564453 C-191.69345088 37.83010193 -185.17373332 33.113067 -178.06933594 28.70751953 C-176.00721344 27.42857248 -173.95902366 26.12637105 -171.93652344 24.78564453 C-153.17960763 12.35602416 -132.3576482 5.20360184 -110.70605469 -0.37841797 C-109.92343262 -0.58241211 -109.14081055 -0.78640625 -108.33447266 -0.99658203 C-74.49643537 -9.53009175 -33.64104767 -9.17667278 0 0 Z " fill="#22A4FE" transform="translate(515.7060546875,332.37841796875)"/>
<path d="M0 0 C0.33 0 0.66 0 1 0 C5.64012654 24.40967973 -7.78409472 54.12945062 -21 74 C-22.73711315 76.34562713 -24.51747116 78.6448281 -26.34033203 80.92431641 C-28.01916775 83.02397237 -29.63771698 85.16149804 -31.25 87.3125 C-44.83099591 104.70464398 -61.28062751 119.13682549 -80.2578125 130.37109375 C-82.07518986 131.45064697 -83.88275871 132.54689862 -85.6796875 133.66015625 C-102.0765058 143.62996682 -119.71416407 149.47203405 -138 155 C-138 154.01 -138 153.02 -138 152 C-132.36049968 149.87529848 -126.7345786 147.90209365 -120.9375 146.25 C-99.60017499 139.71560129 -79.0624717 128.32107201 -62 114 C-60.84147465 113.05558607 -59.68260785 112.11159089 -58.5234375 111.16796875 C-24.71736025 83.29051762 -5.13482298 45.95112548 -0.2265625 2.40234375 C-0.15179687 1.60957031 -0.07703125 0.81679688 0 0 Z " fill="#22A4FE" transform="translate(656,501)"/>
<path d="M0 0 C0.33 0 0.66 0 1 0 C0.98428955 0.83958252 0.9685791 1.67916504 0.95239258 2.54418945 C0.69225362 18.59048226 0.44491688 34.25807784 4 50 C4.16097168 50.76103027 4.32194336 51.52206055 4.48779297 52.30615234 C9.8468005 77.20674738 21.96738354 99.87916383 39.3203125 118.48828125 C41 121 41 121 40.82237244 123.41319275 C39.86944777 126.41065757 38.76102933 127.71279217 36.52172852 129.90063477 C35.78749161 130.62811417 35.0532547 131.35559357 34.29676819 132.1051178 C33.49887375 132.87609299 32.70097931 133.64706818 31.87890625 134.44140625 C31.06381088 135.24609848 30.24871552 136.05079071 29.40892029 136.87986755 C26.80274804 139.45041076 24.18361751 142.00720471 21.5625 144.5625 C18.94670634 147.12304226 16.33388094 149.6864393 13.72679138 152.25584412 C12.10406109 153.8540827 10.47601386 155.44694447 8.84217834 157.03382874 C7.73609474 158.1203196 7.73609474 158.1203196 6.60766602 159.22875977 C5.63290062 160.1787661 5.63290062 160.1787661 4.63844299 161.14796448 C0.49683726 165.82948283 0.66992542 170.03736244 1 176 C1.11310085 178.84018387 1.11310085 178.84018387 2 181 C3.81601365 182.20003343 3.81601365 182.20003343 6 183 C7.35113205 183.97581759 8.68946944 184.97029741 10 186 C8.3125 186.75 8.3125 186.75 6 187 C1.75365691 184.41076641 -0.38384529 181.67834257 -2 177 C-2.92906396 170.33320034 -2.47412721 165.23000412 1.5078125 159.70703125 C3.78776255 157.09881614 6.2518061 155.11839946 9 153 C10.68288252 151.34970852 12.34615776 149.67939317 14 148 C15.19698539 146.80115278 16.39497155 145.60330426 17.59375 144.40625 C18.23183594 143.76816406 18.86992187 143.13007812 19.52734375 142.47265625 C21.48697917 140.51302083 23.44661458 138.55338542 25.40625 136.59375 C26.02072998 135.97910889 26.63520996 135.36446777 27.26831055 134.73120117 C28.35244806 133.64736935 29.43715508 132.56410655 30.52270508 131.48168945 C32.27017783 129.7386721 34.00547642 127.99411792 35.6875 126.1875 C37 125 37 125 39 125 C36.94173902 121.37384743 34.65030241 118.2858333 31.9375 115.125 C5.9263855 83.58230108 -2.61733147 48.0800058 -2.2746582 7.8046875 C-1.98728125 4.8701218 -1.22705363 2.66721586 0 0 Z " fill="#22A5FE" transform="translate(263,475)"/>
<path d="M0 0 C3.71796394 2.76463985 5.5622856 4.24073705 6.30859375 8.9453125 C6.70812225 15.70097624 4.39299357 19.9443164 0 25 C-3.8898766 27.59325106 -7.13550052 27.28404729 -11.64743042 27.26742554 C-12.54172544 27.27195665 -13.43602045 27.27648776 -14.35741532 27.28115618 C-17.36707227 27.29385926 -20.3765496 27.29217592 -23.38623047 27.29052734 C-25.53976678 27.29650958 -27.69330095 27.30331442 -29.84683228 27.31088257 C-35.71152538 27.32859742 -41.57616016 27.33324072 -47.44087744 27.33451414 C-51.11103389 27.33593512 -54.78117551 27.34020408 -58.45132828 27.34550858 C-71.27469066 27.36403872 -84.0980114 27.37217692 -96.92138672 27.37060547 C-108.83796073 27.36940865 -120.75435227 27.39041267 -132.6708802 27.4220928 C-142.92087424 27.44836201 -153.17080918 27.45896807 -163.42083657 27.45769465 C-169.53324604 27.45718741 -175.64549402 27.46273561 -181.75786972 27.48405075 C-187.52484608 27.50360851 -193.29151013 27.5034392 -199.05849838 27.48901749 C-201.15890974 27.48694867 -203.25934152 27.491513 -205.35971832 27.5037384 C-223.66044216 27.60322873 -240.84808786 24.95921005 -258.375 19.625 C-259.36886719 19.32972412 -260.36273438 19.03444824 -261.38671875 18.73022461 C-269.46119033 16.28026132 -277.26970365 13.38200465 -285 10 C-283.25537109 8.89672852 -283.25537109 8.89672852 -281 8 C-279.01416016 8.55444336 -279.01416016 8.55444336 -276.9140625 9.65234375 C-271.85993041 12.11331571 -266.73114026 13.87473578 -261.375 15.5625 C-260.41223145 15.86696045 -259.44946289 16.1714209 -258.45751953 16.48510742 C-250.70170903 18.88509917 -243.01489577 20.67047023 -235 22 C-233.94554687 22.19207031 -232.89109375 22.38414062 -231.8046875 22.58203125 C-218.51314639 24.94459418 -205.41075591 25.16320101 -191.95214844 25.19287109 C-189.93235132 25.20078501 -187.91255556 25.20905473 -185.89276123 25.21765137 C-179.29831257 25.24369355 -172.70385806 25.25914786 -166.109375 25.2734375 C-163.83272549 25.27880203 -161.55607602 25.28417954 -159.27942657 25.28956985 C-149.81363854 25.31116059 -140.34785211 25.32990008 -130.88204575 25.34119225 C-117.33853268 25.35746064 -103.795305 25.39075208 -90.25189948 25.44759309 C-80.71194445 25.48626538 -71.17206591 25.50582096 -61.63203454 25.51111281 C-55.93931033 25.5147661 -50.2468918 25.52678835 -44.55425262 25.55921555 C-39.205768 25.58925298 -33.85777488 25.59562334 -28.50922394 25.58383179 C-26.54804147 25.58361078 -24.5868364 25.59193787 -22.62573242 25.60948563 C-19.94600198 25.63215819 -17.26805764 25.62389212 -14.58831787 25.60800171 C-13.81467573 25.6218838 -13.04103359 25.63576588 -12.24394774 25.65006864 C-7.29365263 25.57785692 -4.31214196 24.39306927 -0.3269732 21.46299994 C2.2325803 18.64106908 2.15616317 15.16014165 2.1875 11.5 C2.20167969 10.7471875 2.21585938 9.994375 2.23046875 9.21875 C1.97300144 6.74008163 1.13746526 5.19400413 0 3 C0 2.01 0 1.02 0 0 Z " fill="#68BEFE" transform="translate(744,757)"/>
<path d="M0 0 C0.33 0 0.66 0 1 0 C3.50386517 19.79908199 -8.22097132 43.91655458 -19 60 C-19.53109375 60.80308594 -20.0621875 61.60617187 -20.609375 62.43359375 C-24.46323172 68.09947026 -28.68846114 73.3966962 -33.08203125 78.65234375 C-35.0999273 81.04497059 -35.0999273 81.04497059 -37 84 C-33.60237744 88.15654169 -30.27280083 91.71323013 -26 95 C-23.13833918 97.71490898 -20.52553788 100.53960555 -18 103.5625 C-15.56804854 106.44227883 -12.99445392 108.69657391 -10 111 C-6.75734537 113.94786785 -4.83755686 115.70296915 -4 120 C-8.18738236 116.48839116 -12.13389115 112.86610885 -16 109 C-17.18136469 107.99275936 -18.36923846 106.99311789 -19.5625 106 C-22.44429187 103.57257272 -24.66249826 100.96083553 -27 98 C-28.65002828 96.64613064 -30.3174387 95.31321858 -32 94 C-33.68662458 92.35353315 -35.35511706 90.68816933 -37 89 C-37.61875 88.505 -38.2375 88.01 -38.875 87.5 C-40 86 -40 86 -39.890625 83.7890625 C-38.70584268 80.07882314 -36.44816431 77.69526607 -33.875 74.875 C-28.93543587 69.2250213 -24.73223186 63.53544497 -21 57 C-20.62520508 56.3591748 -20.25041016 55.71834961 -19.86425781 55.05810547 C-9.99319012 38.02836101 -3.28430465 19.43213586 0 0 Z " fill="#68C4FE" transform="translate(746,636)"/>
<path d="M0 0 C0 0.66 0 1.32 0 2 C-3.47590614 2.80642128 -6.9562276 3.59209856 -10.4375 4.375 C-11.39205078 4.59671875 -12.34660156 4.8184375 -13.33007812 5.046875 C-29.05318159 8.55235381 -44.42869504 9.28211523 -60.47290039 9.13525391 C-62.46552589 9.12479999 -64.45815642 9.11527003 -66.45079041 9.10658264 C-71.80507174 9.0806688 -77.15919054 9.04199893 -82.51337361 9.00085878 C-88.12935144 8.95993622 -93.74539141 8.93099451 -99.36143494 8.90072632 C-109.9715558 8.84175009 -120.5815788 8.77215863 -131.19160789 8.69865549 C-143.28120467 8.61542652 -155.37086305 8.54418039 -167.46054089 8.47388959 C-192.30711781 8.32916288 -217.15358097 8.16955443 -242 8 C-242 7.67 -242 7.34 -242 7 C-241.0160557 6.99853344 -240.0321114 6.99706688 -239.0183506 6.99555588 C-214.9137447 6.9587211 -190.80927517 6.89896322 -166.70478249 6.81609726 C-155.04732706 6.7765351 -143.3899369 6.74402808 -131.73242188 6.72900391 C-121.55437265 6.71586761 -111.37646844 6.6886044 -101.19850099 6.64538693 C-95.82509809 6.62303712 -90.45187222 6.60707302 -85.07841873 6.60811615 C-56.59178572 6.60771692 -27.85377814 0 0 0 Z " fill="#23A5FE" transform="translate(516,654)"/>
<path d="M0 0 C6.55055316 3.43904041 9.90922627 8.9950529 14 15 C14.99386719 16.38058594 14.99386719 16.38058594 16.0078125 17.7890625 C32.38350251 41.10033886 42.97767986 72.30599406 40 101 C38.98046875 103.3984375 38.98046875 103.3984375 38 105 C37.97421875 103.78828125 37.9484375 102.5765625 37.921875 101.328125 C37.54354629 88.85333283 35.84811605 77.13827563 33 65 C32.76990234 63.97350342 32.76990234 63.97350342 32.53515625 62.92626953 C27.70447597 41.54623435 17.04107535 22.54889393 3.15234375 5.7578125 C1 3 1 3 0 0 Z " fill="#21A3FE" transform="translate(618,395)"/>
<path d="M0 0 C4.22697537 1.56407988 6.56136797 4.73222404 9.3125 8.125 C10.28991807 9.30505748 11.26778208 10.48474574 12.24609375 11.6640625 C12.71772949 12.23672852 13.18936523 12.80939453 13.67529297 13.39941406 C17.89384132 18.49650271 22.26168475 23.38014263 27 28 C27.52207031 28.53238281 28.04414063 29.06476562 28.58203125 29.61328125 C36.12985274 37.29740651 44.21888526 43.77023877 53 50 C54.16982422 50.86431641 54.16982422 50.86431641 55.36328125 51.74609375 C60.48338476 55.47215227 65.80418046 58.70295471 71.3125 61.8125 C71.99465576 62.19784912 72.67681152 62.58319824 73.37963867 62.98022461 C76.19946257 64.54648495 78.90670545 65.96365634 81.91796875 67.13671875 C84 68 84 68 85 70 C82 71 82 71 79.0234375 69.734375 C77.80037219 69.08580036 76.58466664 68.4232343 75.375 67.75 C74.72128418 67.39301025 74.06756836 67.03602051 73.39404297 66.66821289 C55.97883424 56.98509341 40.37916124 45.44580347 26.33203125 31.31640625 C23.96580185 28.88142679 23.96580185 28.88142679 20.9375 26.5625 C17.91472172 23.92560831 16.16444319 21.3513959 14 18 C13.23429687 17.24203125 12.46859375 16.4840625 11.6796875 15.703125 C8.88266131 12.88163502 6.55488125 9.93791637 4.1875 6.75 C3.39730469 5.69296875 2.60710937 4.6359375 1.79296875 3.546875 C0 1 0 1 0 0 Z " fill="#65C1FE" transform="translate(375,695)"/>
<path d="M0 0 C0 3.39871759 -0.73796492 4.77392362 -2.30078125 7.75390625 C-3.02491211 9.1605957 -3.02491211 9.1605957 -3.76367188 10.59570312 C-4.78249704 12.54727365 -5.80327665 14.4978253 -6.82617188 16.44726562 C-12.0803412 26.67027853 -14.61739993 37.14979166 -17.19335938 48.29101562 C-17.39896484 49.14501953 -17.60457031 49.99902344 -17.81640625 50.87890625 C-17.99631104 51.6479126 -18.17621582 52.41691895 -18.36157227 53.20922852 C-19 55 -19 55 -21 56 C-20.72201069 39.59863084 -15.2383696 20.19743596 -5 7 C-4.67 5.948125 -4.34 4.89625 -4 3.8125 C-3.67 2.884375 -3.34 1.95625 -3 1 C-2.01 0.67 -1.02 0.34 0 0 Z " fill="#22A5FE" transform="translate(284,417)"/>
<path d="M0 0 C2.35756882 0.38384852 3.67944313 0.67029416 5.36865234 2.40771484 C5.77035645 3.00277832 6.17206055 3.5978418 6.5859375 4.2109375 C7.26571655 5.20528809 7.26571655 5.20528809 7.95922852 6.21972656 C8.42643311 6.9309668 8.8936377 7.64220703 9.375 8.375 C9.85960693 9.09655273 10.34421387 9.81810547 10.84350586 10.56152344 C14.57955701 16.1922013 17.96842019 21.95796638 21 28 C21.37769531 28.70125 21.75539063 29.4025 22.14453125 30.125 C23.22929475 32.50256384 23.14344619 34.41796849 23 37 C20.8002505 34.96102694 19.35989277 33.08774842 18.01953125 30.41015625 C17.66391113 29.71374023 17.30829102 29.01732422 16.94189453 28.29980469 C16.56919434 27.56149414 16.19649414 26.82318359 15.8125 26.0625 C12.46932818 19.58019323 8.88937246 13.51144181 4.7265625 7.515625 C3.04417462 5.06436302 1.50340169 2.56408387 0 0 Z " fill="#69C1FE" transform="translate(713,521)"/>
<path d="M0 0 C2.88376615 4.32564922 3.57942515 8.90061594 4.6875 13.9375 C4.91590576 14.97334229 5.14431152 16.00918457 5.37963867 17.07641602 C6.88492581 24.35054341 7.59376895 30.66235089 6 38 C5.67 38 5.34 38 5 38 C4.92483154 37.38592285 4.84966309 36.7718457 4.7722168 36.13916016 C4.41951195 33.2999261 4.05357543 30.46253989 3.6875 27.625 C3.56955078 26.65949219 3.45160156 25.69398438 3.33007812 24.69921875 C2.57742405 18.94816969 1.44275979 13.62590547 -0.43359375 8.1328125 C-1.20907186 5.2127363 -0.83133671 2.87189046 0 0 Z " fill="#69C2FE" transform="translate(742,571)"/>
<path d="M0 0 C0.66 0.33 1.32 0.66 2 1 C2.08103404 3.91722548 2.14051081 6.83219516 2.1875 9.75 C2.22520508 10.9875 2.22520508 10.9875 2.26367188 12.25 C2.27333984 13.04921875 2.28300781 13.8484375 2.29296875 14.671875 C2.3086792 15.4050293 2.32438965 16.13818359 2.34057617 16.89355469 C1.90764923 19.57118456 0.74285288 20.96566653 -1 23 C-1.02887512 19.35418313 -1.04675585 15.70839537 -1.0625 12.0625 C-1.07087891 11.02158203 -1.07925781 9.98066406 -1.08789062 8.90820312 C-1.09272461 7.42416992 -1.09272461 7.42416992 -1.09765625 5.91015625 C-1.10289307 4.99371338 -1.10812988 4.07727051 -1.11352539 3.13305664 C-1 1 -1 1 0 0 Z " fill="#6CC2FF" transform="translate(748,609)"/>
<path d="M0 0 C0.66 0.33 1.32 0.66 2 1 C1.4946875 1.51046875 0.989375 2.0209375 0.46875 2.546875 C-3.6688649 7.1770631 -5.48998767 10.24148488 -5.4375 16.5625 C-5.3264722 18.37746458 -5.19274304 20.19188669 -5 22 C-7.98950317 17.51574524 -7.97657462 13.24641547 -7 8 C-5.04526509 4.88022359 -2.74281918 2.44194871 0 0 Z " fill="#B5DAF7" transform="translate(360,450)"/>
<path d="M0 0 C0.66 0 1.32 0 2 0 C2.70180531 1.4096347 3.38593958 2.82807641 4.0625 4.25 C4.44535156 5.03890625 4.82820312 5.8278125 5.22265625 6.640625 C6.08564091 9.25993522 5.93045933 10.44855176 5 13 C2.74119303 10.74119303 2.6553121 10.03081847 2 7 C1.33847444 4.6652039 0.67258667 2.33163378 0 0 Z " fill="#69C1FF" transform="translate(736,559)"/>
<path d="M0 0 C-2.11770166 2.32947183 -4.03335588 3.88750845 -7 5 C-7.99 4.67 -8.98 4.34 -10 4 C-9.34 4 -8.68 4 -8 4 C-8 3.34 -8 2.68 -8 2 C-3.61016949 -1.20338983 -3.61016949 -1.20338983 0 0 Z " fill="#1DAFFF" transform="translate(568,635)"/>
<path d="M0 0 C-1.49097658 3.7952131 -3.75700849 5.61042731 -7 8 C-7 5 -7 5 -4.625 2.3125 C-2 0 -2 0 0 0 Z " fill="#CBE4F8" transform="translate(362,511)"/>
<path d="M0 0 C0.33 0.99 0.66 1.98 1 3 C-1.8125 4.5625 -1.8125 4.5625 -5 6 C-5.99 5.67 -6.98 5.34 -8 5 C-5.44008376 2.98863724 -2.95409701 1.37154504 0 0 Z " fill="#23B1FF" transform="translate(368,344)"/>
<path d="M0 0 C-1.0975223 2.99324263 -1.67682892 3.84610901 -4.625 5.25 C-5.40875 5.4975 -6.1925 5.745 -7 6 C-7.33 5.34 -7.66 4.68 -8 4 C-2.25 0 -2.25 0 0 0 Z " fill="#61CAFF" transform="translate(590,656)"/>
<path d="M0 0 C0.66 0.33 1.32 0.66 2 1 C0.02 3.31 -1.96 5.62 -4 8 C-4.33 7.01 -4.66 6.02 -5 5 C-3.35 3.35 -1.7 1.7 0 0 Z " fill="#CEE5F8" transform="translate(360,450)"/>
<path d="M0 0 C0.66 0.66 1.32 1.32 2 2 C0.75 4.4375 0.75 4.4375 -1 7 C-2.32 7.33 -3.64 7.66 -5 8 C-3.35 5.36 -1.7 2.72 0 0 Z " fill="#219CFF" transform="translate(287,410)"/>
<path d="M0 0 C1.37562854 1.28965176 2.70766393 2.62689293 4 4 C4 4.66 4 5.32 4 6 C0.83884224 4.63016497 0.0072908 4.0109362 -2 1 C-1.34 0.67 -0.68 0.34 0 0 Z " fill="#65C3FE" transform="translate(709,514)"/>
<path d="M0 0 C1.65 1.65 3.3 3.3 5 5 C4.67 5.99 4.34 6.98 4 8 C1.10067643 5.60490662 0.49831724 3.68754757 0 0 Z " fill="#17A9FF" transform="translate(611,385)"/>
</svg>
