<?xml version="1.0" encoding="UTF-8"?>
<svg version="1.1" xmlns="http://www.w3.org/2000/svg" width="150" height="150">
<path d="M0 0 C1.00514648 0.00757324 2.01029297 0.01514648 3.04589844 0.02294922 C10.88067781 0.19624027 17.4190278 1.18417078 24.625 4.4375 C26.04619141 5.07365234 26.04619141 5.07365234 27.49609375 5.72265625 C38.30961283 11.10691887 46.21256182 18.64846759 51.625 29.4375 C52.11613281 30.41589844 52.11613281 30.41589844 52.6171875 31.4140625 C57.37729687 41.70496561 56.39036231 52.99596338 52.625 63.4375 C46.02560441 76.53153887 35.95274053 85.45601124 22.28125 90.7265625 C11.72640888 94.15441978 1.61299804 94.59498709 -9.3984375 94.60546875 C-10.62156647 94.60879715 -11.84469543 94.61212555 -13.10488892 94.61555481 C-15.67490261 94.62059413 -18.24492278 94.62296407 -20.81494141 94.62280273 C-24.75824536 94.6250046 -28.70127614 94.64323392 -32.64453125 94.66210938 C-35.14583238 94.66504078 -37.64713483 94.66702727 -40.1484375 94.66796875 C-41.32965179 94.67515427 -42.51086609 94.68233978 -43.72787476 94.68974304 C-44.81976105 94.68666641 -45.91164734 94.68358978 -47.03662109 94.68041992 C-47.9976474 94.68184494 -48.95867371 94.68326996 -49.94882202 94.68473816 C-52.375 94.4375 -52.375 94.4375 -55.375 92.4375 C-55.46534097 88.19147448 -55.08563519 86.28489895 -52.3046875 82.96875 C-50.04404494 80.7293674 -47.75072963 78.55405913 -45.375 76.4375 C-45.92929687 75.49648437 -46.48359375 74.55546875 -47.0546875 73.5859375 C-47.78674867 72.32829396 -48.51850325 71.07047192 -49.25 69.8125 C-49.61480469 69.19503906 -49.97960937 68.57757813 -50.35546875 67.94140625 C-56.36919716 57.55405717 -57.09939199 46.39816399 -54.5703125 34.72265625 C-51.82739425 26.76819333 -47.40999258 21.19960596 -41.375 15.4375 C-40.80910156 14.86386719 -40.24320313 14.29023438 -39.66015625 13.69921875 C-29.02940919 3.64029672 -14.25685133 -0.15177114 0 0 Z " fill="#2194F0" transform="translate(62.375,6.5625)"/>
<path d="M0 0 C7.33683076 2.38192249 11.02771437 8.41575016 14.625 14.953125 C19.51798186 26.01793624 19.89661905 37.81679395 15.8125 49.1875 C13.78167223 53.81778732 11.56996688 57.43003312 8 61 C9.38549276 64.18872203 10.97687873 66.07547043 13.5625 68.375 C16.1078685 70.83569928 16.94678367 71.82372092 18 75.3125 C18 78 18 78 17 80 C13.9340927 81.0219691 11.82857642 81.13264152 8.61743164 81.14526367 C7.51520767 81.15164352 6.4129837 81.15802338 5.27735901 81.16459656 C3.48684364 81.16626579 3.48684364 81.16626579 1.66015625 81.16796875 C0.42768661 81.17129715 -0.80478302 81.17462555 -2.07460022 81.17805481 C-4.68978502 81.18312438 -7.30497631 81.18546313 -9.92016602 81.18530273 C-13.89021468 81.18518214 -17.86007512 81.20558814 -21.83007812 81.22460938 C-24.37499905 81.22754643 -26.9199213 81.22952913 -29.46484375 81.23046875 C-30.64030258 81.23765427 -31.81576141 81.24483978 -33.02684021 81.25224304 C-51.68263804 81.20147591 -67.43207403 76.51019981 -81 63.25 C-86 58.10576923 -86 58.10576923 -86 54 C-85.04859131 53.9906543 -84.09718262 53.98130859 -83.11694336 53.97167969 C-79.51006043 53.93112096 -75.90397309 53.86520003 -72.29760742 53.79248047 C-70.7511637 53.76464544 -69.20458759 53.74324939 -67.65795898 53.72900391 C-48.04033299 53.53773683 -29.5394157 49.14712118 -15 35 C-5.97205997 24.70275382 -1.60304028 13.49424954 0 0 Z " fill="#62B2F1" transform="translate(125,54)"/>
<path d="M0 0 C1.07128647 -0.00630432 2.14257294 -0.01260864 3.24632263 -0.019104 C4.40777298 -0.01505554 5.56922333 -0.01100708 6.76586914 -0.00683594 C7.95451065 -0.00874939 9.14315216 -0.01066284 10.36781311 -0.01263428 C12.88551037 -0.01399734 15.40321462 -0.01029248 17.92089844 -0.00195312 C21.78149172 0.00873498 25.64161863 -0.00183978 29.50219727 -0.01464844 C31.94425559 -0.01332668 34.38631362 -0.01076395 36.82836914 -0.00683594 C37.98779526 -0.0108844 39.14722137 -0.01493286 40.34178162 -0.019104 C41.95343956 -0.00964752 41.95343956 -0.00964752 43.59765625 0 C45.01757118 0.00238678 45.01757118 0.00238678 46.46617126 0.00482178 C48.86352539 0.25878906 48.86352539 0.25878906 51.86352539 2.25878906 C51.11352539 7.00878906 51.11352539 7.00878906 48.86352539 9.25878906 C46.58642578 9.51275635 46.58642578 9.51275635 43.71118164 9.51757812 C42.63666748 9.52388245 41.56215332 9.53018677 40.45507812 9.53668213 C39.29049072 9.53263367 38.12590332 9.52858521 36.92602539 9.52441406 C35.73501221 9.52632751 34.54399902 9.52824097 33.31689453 9.5302124 C30.79500111 9.53157536 28.2731007 9.52787122 25.7512207 9.51953125 C21.8796419 9.50883359 18.00852717 9.51942312 14.13696289 9.53222656 C11.69164936 9.53090499 9.24633612 9.52834264 6.80102539 9.52441406 C5.05414429 9.53048676 5.05414429 9.53048676 3.27197266 9.53668213 C1.66020142 9.52722565 1.66020142 9.52722565 0.01586914 9.51757812 C-1.40737671 9.51519135 -1.40737671 9.51519135 -2.859375 9.51275635 C-5.13647461 9.25878906 -5.13647461 9.25878906 -7.13647461 7.25878906 C-7.38647461 4.75878906 -7.38647461 4.75878906 -7.13647461 2.25878906 C-4.56367385 -0.3140117 -3.57458913 0.00601369 0 0 Z " fill="#EAF2F9" transform="translate(40.136474609375,40.7412109375)"/>
<path d="M0 0 C1.2219104 0.00607269 1.2219104 0.00607269 2.46850586 0.01226807 C3.30438232 0.01035461 4.14025879 0.00844116 5.00146484 0.00646973 C6.77010397 0.00510771 8.53875309 0.0088053 10.30737305 0.01715088 C13.02016579 0.02785031 15.7322963 0.01725631 18.44506836 0.00445557 C20.16121566 0.00577716 21.87736255 0.00833955 23.59350586 0.01226807 C24.40811279 0.0082196 25.22271973 0.00417114 26.06201172 0 C31.80108658 0.04797379 31.80108658 0.04797379 34.03100586 2.27789307 C33.4754503 6.83344862 33.4754503 6.83344862 32.03100586 8.27789307 C29.1583653 8.37896181 26.31026958 8.41758978 23.43725586 8.41070557 C22.57539673 8.41166229 21.7135376 8.41261902 20.82556152 8.41360474 C18.99967374 8.41428656 17.17378355 8.41243211 15.34790039 8.40826416 C12.54299508 8.40291593 9.73824991 8.40820906 6.93334961 8.41461182 C5.163818 8.41395104 3.3942865 8.41266987 1.62475586 8.41070557 C0.77997681 8.4127298 -0.06480225 8.41475403 -0.93518066 8.4168396 C-6.85404383 8.39284338 -6.85404383 8.39284338 -7.96899414 7.27789307 C-8.15649414 4.84039307 -8.15649414 4.84039307 -7.96899414 2.27789307 C-5.36593522 -0.32516585 -3.54620875 0.02964329 0 0 Z " fill="#F3F7F9" transform="translate(40.968994140625,57.72210693359375)"/>
<path d="M0 0 C0.66 0.33 1.32 0.66 2 1 C-4.43896782 8.4781096 -4.43896782 8.4781096 -7.6875 11.5 C-14.88102621 19.27678509 -16.45257855 29.13466583 -16.33203125 39.4140625 C-15.91827358 43.88264532 -14.71640874 47.58280663 -12.97265625 51.6953125 C-12.08714293 53.79351675 -11.48589641 55.7802206 -11 58 C-16.05789364 53.37688231 -17.89756094 47.52511928 -18.4296875 40.796875 C-18.98449526 28.31906086 -16.92492567 18.05938356 -8.4375 8.4375 C-6.97869765 6.9382456 -5.50048463 5.45753694 -4 4 C-3.24847656 3.24847656 -2.49695312 2.49695313 -1.72265625 1.72265625 C-1.15417969 1.15417969 -0.58570312 0.58570312 0 0 Z " fill="#1568A8" transform="translate(25,18)"/>
<path d="M0 0 C0.66 0.33 1.32 0.66 2 1 C0.87895467 2.31587941 -0.24696965 3.62760353 -1.375 4.9375 C-2.00148438 5.66839844 -2.62796875 6.39929688 -3.2734375 7.15234375 C-5 9 -5 9 -7 10 C-6.42424336 6.64749299 -5.40693737 5.06181371 -2.9375 2.75 C-2.38964844 2.22921875 -1.84179688 1.7084375 -1.27734375 1.171875 C-0.64505859 0.59179688 -0.64505859 0.59179688 0 0 Z " fill="#1979C5" transform="translate(25,18)"/>
</svg>
